<svg xmlns="http://www.w3.org/2000/svg" width="57" height="40" viewBox="0 0 57 40">
  <path fill="#FFF" fill-rule="evenodd" d="M14.0852215,0.210098865 L22.0604896,5.49238987 C22.9400415,6.07543819 23.4704661,7.06170878 23.4704661,8.11916287 L23.4704661,38.7473066 C23.4704661,39.7455731 22.3571064,40.3420886 21.5266699,39.7878985 L12.7022925,33.9191641 C12.3532783,33.6853563 12.1449336,33.2854159 12.1449336,32.8666894 L12.1440011,13.6811581 C12.143992,13.5436803 12.143983,13.4066372 12.143974,13.2700685 L12.1431229,1.2522751 L12.1431229,1.2522751 C12.1431229,0.255819268 13.2532007,-0.340696197 14.0852215,0.210098865 Z M41.8825706,22.0402449 C44.9856733,22.0402449 47.4429186,24.4230249 47.4429186,27.5260144 C47.4429186,30.6290039 44.9856733,33.0117838 41.8825706,33.0117838 C38.7795811,33.0117838 36.3223358,30.6290039 36.3223358,27.5260144 C36.3223358,24.4230249 38.7795811,22.0402449 41.8825706,22.0402449 Z M51.0194878,22.278953 C51.0500435,22.278953 51.0755066,22.3044161 51.0755066,22.3332743 L51.0755066,28.7543881 C51.0755066,29.4730132 51.6143057,30.105177 52.5396912,30.105177 C53.4649635,30.105177 53.9598529,29.4730132 53.9598529,28.7543881 L53.9598529,22.3332743 C53.9598529,22.3044161 53.9818078,22.278953 54.0123635,22.278953 L56.8780369,22.278953 C56.9087058,22.278953 56.9323582,22.3044161 56.9323582,22.3332743 L56.9323582,29.2645554 C56.9323582,31.513456 55.1443962,33.0114783 52.5396912,33.0114783 C49.9332887,33.0114783 48.1453266,31.513456 48.1453266,29.2645554 L48.1453266,22.3332743 C48.1453266,22.3044161 48.1690922,22.278953 48.1978372,22.278953 L51.0194878,22.278953 Z M31.2413956,22.2800734 C31.2635768,22.2800734 31.2821366,22.2919561 31.2906243,22.3122134 L32.7072778,25.583033 C32.7259507,25.6253583 32.7870621,25.6253583 32.8073195,25.583033 L34.2665246,22.3122134 C34.2748991,22.2919561 34.2953828,22.2800734 34.3156401,22.2800734 L37.416932,22.2800734 C37.4558623,22.2800734 37.4830229,22.3208143 37.4644632,22.3563495 L34.2140141,28.7740682 C34.210619,28.7809716 34.2089214,28.7893461 34.2089214,28.7978338 L34.2089214,32.7718875 L31.3059021,32.7718875 L31.3059021,28.7978338 C31.3059021,28.7893461 31.3042046,28.7809716 31.299112,28.7740682 L28.0944964,22.3563495 C28.0758235,22.3208143 28.1011734,22.2800734 28.1419144,22.2800734 L31.2413956,22.2800734 Z M41.8825706,24.977215 C40.3997131,24.977215 39.320191,26.0719018 39.320191,27.5260144 C39.320191,28.9800137 40.3997131,30.0731162 41.8825706,30.0731162 C43.3671257,30.0731162 44.4466478,28.9800137 44.4466478,27.5260144 C44.4466478,26.0719018 43.3671257,24.977215 41.8825706,24.977215 Z M41.9124134,10.269312 C45.0154029,10.269312 47.4727614,12.6519788 47.4727614,15.7549682 C47.4727614,18.8579577 45.0154029,21.2407377 41.9124134,21.2407377 C38.8094239,21.2407377 36.3521785,18.8579577 36.3521785,15.7549682 C36.3521785,12.6519788 38.8094239,10.269312 41.9124134,10.269312 Z M36.2941453,10.5087103 C36.324701,10.5087103 36.346769,10.5324759 36.346769,10.5612209 L36.346769,13.2270373 C36.346769,13.2574799 36.324701,13.2795479 36.2941453,13.2795479 L31.2592424,13.2795479 C31.232195,13.2795479 31.2067319,13.3032003 31.2067319,13.333756 L31.2067319,15.0182813 C31.2067319,15.0471394 31.232195,15.0707918 31.2592424,15.0707918 L35.1011144,15.0707918 C35.1298594,15.0707918 35.1536249,15.0962549 35.1536249,15.1251131 L35.1536249,17.6280789 C35.1536249,17.656937 35.1298594,17.6807026 35.1011144,17.6807026 L31.2592424,17.6807026 C31.232195,17.6807026 31.2067319,17.704355 31.2067319,17.7349107 L31.2067319,20.9480139 C31.2067319,20.9768721 31.1829663,21.0005245 31.1542213,21.0005245 L28.1358825,21.0005245 C28.1071375,21.0005245 28.0816744,20.9768721 28.0816744,20.9480139 L28.0816744,10.5612209 C28.0816744,10.5324759 28.1071375,10.5087103 28.1358825,10.5087103 L36.2941453,10.5087103 Z M52.5286459,10.4940097 C54.6182041,10.4940097 56.3638408,12.1870226 56.3129146,14.2764677 C56.2823589,15.4882847 55.6773557,16.460975 54.7369187,17.0490028 C54.7147375,17.0625831 54.7046655,17.0914413 54.7182458,17.1167912 L56.7213427,20.9078501 C56.7417132,20.9433853 56.7145525,20.9858238 56.6756223,20.9858238 L53.589495,20.9858238 C53.5691245,20.9858238 53.5505648,20.973941 53.5402664,20.9569656 L51.9066673,17.7185125 C51.8982928,17.6997264 51.8796198,17.6879567 51.8592494,17.6879567 L51.1949455,17.6879567 C51.1660873,17.6879567 51.1424349,17.7116091 51.1424349,17.7421648 L51.1424349,20.9332001 C51.1424349,20.9620582 51.1186693,20.9858238 51.0898112,20.9858238 L48.1986746,20.9858238 C48.1682321,20.9858238 48.1461641,20.9620582 48.1461641,20.9332001 L48.1461641,10.5465202 C48.1461641,10.5177752 48.1682321,10.4940097 48.1986746,10.4940097 L52.5286459,10.4940097 Z M41.9124134,13.2061689 C40.4294427,13.2061689 39.3500337,14.3009689 39.3500337,15.7549682 C39.3500337,17.2090808 40.4294427,18.30207 41.9124134,18.30207 C43.3969685,18.30207 44.4764906,17.2090808 44.4764906,15.7549682 C44.4764906,14.3009689 43.3969685,13.2061689 41.9124134,13.2061689 Z M52.2812577,13.2512669 L51.1949455,13.2512669 C51.1660873,13.2512669 51.1424349,13.2749193 51.1424349,13.305475 L51.1424349,15.1459476 C51.1424349,15.1763901 51.1660873,15.2001557 51.1949455,15.2001557 L52.2812577,15.2001557 C52.9116108,15.2153204 53.3149463,14.8561209 53.3149463,14.2409325 C53.3149463,13.6257441 52.9116108,13.2512669 52.2812577,13.2512669 Z M9.98577622,4.0129274 L9.98577622,13.2134796 C9.98577622,13.5016087 9.82994207,13.7540895 9.59771863,13.9252015 C9.35712067,14.1015193 8.92481388,14.3929302 8.67753892,14.5335997 C8.38940984,14.6979216 8.04198004,14.7131994 7.76245183,14.5352972 L0.390489404,10.942511 C-0.126468033,10.6120566 -0.131560652,9.85631187 0.383699245,9.52065168 L8.67414384,3.30290311 C9.23840605,2.93340529 9.98577622,3.33855144 9.98577622,4.0129274 Z"/>
</svg>
