<svg id="Layer_1" data-name="Layer 1" xmlns="http://www.w3.org/2000/svg" viewBox="0 0 622.08 424.65"><defs><style>.cls-1{fill:#fff;}</style></defs><title>absa</title><g id="kV8Mbg"><path class="cls-1" d="M262.12,343.55c6.92,2.19,13.34,3.88,19.48,6.27a82.15,82.15,0,0,1,15.07,7.45c15.93,10.4,18,24.72,9.08,40.85-4.08,7.38-11.17,11.43-18.16,15.52-9.23,5.41-19.42,7.12-29.87,8.11-23.73,2.25-47.52,2.1-71.31,2.17-.75,0-1.5-.06-2.46-.11V271.68c5.48,0,10.92-.09,16.36,0,11.85.24,23.71.46,35.55.9,10.06.38,20.18.53,30,3a49.62,49.62,0,0,1,18.55,8.74c6.83,5.25,9.77,12.4,10.72,20.84,1.29,11.53-4.48,19.32-12.93,25.64-5.23,3.91-11,7.14-16.48,10.66C264.74,342.12,263.64,342.69,262.12,343.55Zm-22.61.42c2.34-1.63,4.26-3.13,6.32-4.39,9-5.51,14.09-13.47,14.92-24,.44-5.6,1.19-11.2-1.48-16.57-3.78-7.62-9.93-12.31-17.85-14.91-6.58-2.16-13.38-2.1-20.2-2.15-2.29,0-2.8.7-2.76,2.87.42,23.37.61,46.74,1.14,70.1.4,18,1.16,35.95,1.82,53.92.15,3.91,1.74,5.33,5.69,4.77,6.64-.94,13.28-1.94,19.82-3.38,6.3-1.39,12-4.32,15.48-10A71.11,71.11,0,0,0,269,386.4c2.79-8.16,1.46-16.14-2.94-23.48-5-8.26-12.49-13.42-21.3-16.89Z"/><path class="cls-1" d="M188.62,0c3.1,5.53,5.86,10.41,8.58,15.31q20.26,36.59,40.47,73.21c2.14,3.89,5.34,5.71,9.6,6.47,25.5,4.54,49.73,12.68,72.1,25.93a67.43,67.43,0,0,1,19.71,17.44c7.79,10.32,7.87,19.91.08,30.24a55.42,55.42,0,0,1-28.79,20.26c-16.5,5-33.09,5.18-49.57-.23a45.08,45.08,0,0,1-23.93-18.06c-7.21-10.82-14.16-21.87-20.4-33.26-15.93-29.09-31.39-58.44-47.1-87.65a5.3,5.3,0,0,1-.18-5.14c5.4-12.57,10.69-25.19,16.06-37.77C186.13,4.67,187.26,2.71,188.62,0Zm59.71,103-.55.74a51.33,51.33,0,0,0,2.2,5.15c5.93,10.63,11.72,21.34,18,31.77,6.09,10.15,12.69,20,19,30,3,4.7,7.32,6.62,12.78,6.6a36.66,36.66,0,0,0,16-4,39.89,39.89,0,0,0,5.88-3.39c9.71-7,11.51-16.8,5.08-27.4-4.59-7.57-11.13-13.2-18.39-18-15.53-10.34-32.83-16.27-50.93-20.13C254.41,103.74,251.35,103.48,248.32,103Z"/><path class="cls-1" d="M463.93,422.48c25.74-51.84,52.24-103,80.62-153.38,5.52,6,76.73,147,77.53,153.61l-40.55,1.59L568.75,396c-1.07-2.37-2-4.82-3.27-7.08a3.63,3.63,0,0,0-2.57-1.73c-18.82.31-37.64.74-56.46,1.15a1.43,1.43,0,0,1-.25,0c-6.59-1.08-10.12,2.09-12.71,8-2.69,6.12-6.52,11.73-9.7,17.65-3.42,6.35-8.38,9.65-15.78,8.74a27.57,27.57,0,0,0-3,0C464.82,422.67,464.66,422.62,463.93,422.48Zm41.72-50.08a42.15,42.15,0,0,0,4.72.48c10.08-.14,20.16-.26,30.23-.59A83.49,83.49,0,0,0,551.83,371c3-.5,3.29-1.2,1.94-3.93-6.43-13-12.87-26-19.48-38.92-2.29-4.47-3.46-4.46-5.83,0-7.41,13.92-14.66,27.93-22,41.91A20.84,20.84,0,0,0,505.64,372.4Z"/><path class="cls-1" d="M0,423.13C25.74,371.2,52.51,320.39,80.87,269.68c1.53,2.64,2.74,4.54,3.77,6.53q34.81,67.33,69.55,134.69a67.59,67.59,0,0,1,3.54,8.86c.6,1.73.3,3-2.13,3.07q-17.63.57-35.25,1.42c-1.67.08-2.13-.83-2.71-2-5.13-10.39-10.32-20.74-15.42-31.15a3.49,3.49,0,0,0-3.36-2.37c-11.75-.43-23.5-1.08-35.25-1.42-8.57-.25-17.15-.06-25.72-.27-2.58-.06-4,.64-5.22,3.09-5.09,10.4-10.46,20.67-15.66,31-.75,1.49-1.58,2.31-3.38,2.29-3.1,0-6.21.24-9.32.27A33.72,33.72,0,0,1,0,423.13ZM68,322.31c-1.06,1.66-1.81,2.66-2.38,3.76-7,13.57-14,27.12-20.87,40.75-2.92,5.79-2.65,6.21,3.88,6.08,12.09-.25,24.17-.68,36.26-1.1,2.55-.09,5.08-.44,8.15-.72C85.37,354.3,77.17,338.42,68,322.31Z"/><path class="cls-1" d="M341,384.51l3.23,4.24c5.86,7.75,12,15.38,20.89,19.74,14.54,7.11,29.51,7.56,44.25.74,9.92-4.59,14.37-15.19,11.59-25.58-1.21-4.55-4.26-7.74-7.83-10.51-6.93-5.37-15.11-8.34-23-11.9-10.25-4.64-20.68-9-29.81-15.69a67.35,67.35,0,0,1-10.8-9.78c-9.24-10.57-10.81-22.52-5.51-35.47,6.54-16,18.85-24.6,35.42-27.76a134.2,134.2,0,0,1,39.67-1.19c6.84.74,13.64,1.8,20.47,2.67,2,.26,2.78,1.25,2.89,3.31.4,7.72,1,15.43,1.5,23.14,0,.71,0,1.43,0,2.74L437.16,297c-9.07-8.31-19.39-14.25-31.76-15.74-10-1.2-19.74-.05-27.6,7.23-8.84,8.2-8.59,19.23.41,27.24,4.67,4.16,10.37,6.44,16,8.88,12.62,5.48,25.34,10.74,37.77,16.63a65.15,65.15,0,0,1,13.46,9.22c9.34,7.82,12.29,18.31,11.39,30.1-.79,10.3-6.06,18.4-13.16,25.39a62.53,62.53,0,0,1-38.46,18c-19.09,2-37.71-.18-56.18-4.78-6.55-1.63-7.62-2.54-7.94-9.37C340.73,401.55,341,393.31,341,384.51Z"/><path class="cls-1" d="M161.78,227.57c-13.23-.05-26.43.32-39.51-2.07C98.49,221.16,75.72,214,54.61,202c-9.63-5.46-18.5-12-25.7-20.48C15.61,165.8,16,149.4,30.2,134.35c9.19-9.75,20.43-16.66,32.46-22.24C81,103.63,100.4,98.63,120.17,95c8.15-1.5,16.4-2.46,25.18-3.75-1.52,3.83-2.65,7.12-4.18,10.22-.46.94-1.94,1.64-3.08,2-6.12,1.74-12.29,3.34-18.44,5-19.71,5.22-38.13,13-53.54,26.8A57.8,57.8,0,0,0,59.76,142c-10.33,12.79-10.44,26.1-.49,39.17,10.21,13.42,23.49,22.65,39.07,28.76,17.16,6.73,35,11,52.93,15.18Z"/><path class="cls-1" d="M126,193.7a26.17,26.17,0,1,1,26.28-25.94A26.05,26.05,0,0,1,126,193.7Z"/></g></svg>