<svg id="Layer_1" data-name="Layer 1" xmlns="http://www.w3.org/2000/svg" viewBox="0 0 231.38 75.12"><defs><style>.cls-1,.cls-2{fill:#fff;}.cls-2{font-size:15.06px;font-family:HelveticaNeue-Bold, Helvetica Neue;font-weight:700;}.cls-3{letter-spacing:-0.04em;}.cls-4{letter-spacing:-0.02em;}</style></defs><title>FNB-ewallet-pro</title><path class="cls-1" d="M134.32,37.81c0-1.26-.9-2.06-2.45-2.06h-3.43v4.12h3.43c1.55,0,2.45-.79,2.45-2.06m1.76,8.28c0-1.43-1.1-2.47-3-2.47h-4.63v5h4.63c1.9,0,3-1,3-2.51m3.14-8.89a4.73,4.73,0,0,1-2.07,4l-.38.27.45.18A5.29,5.29,0,0,1,141,46.79c0,3.12-2.49,5.77-7.67,5.77h-9.64V31.87h8.43c4.87,0,7.11,2.44,7.11,5.33M86.56,52.52h-5V37.2c0-2.88,2.24-5.33,7.11-5.33h9.79v3.89H88.92a2.18,2.18,0,0,0-2.36,1.44v2.92H97.47v4.3H86.56Zm32.77,0A4.72,4.72,0,0,1,116,51.16l-6.45-6.46-3.23-3.23a15.18,15.18,0,0,1-1.49-1.72l-.23.07V52.51H100V31.87h1.54a4.72,4.72,0,0,1,3.32,1.37l6.45,6.44,3.24,3.23a20.52,20.52,0,0,1,1.5,1.72l.17-.05.05-12.7h4.59V52.53Z"/><path class="cls-1" d="M50,59.15h0Z"/><path class="cls-1" d="M28.15,60.51a27.16,27.16,0,0,1-3.26-1.33A27.85,27.85,0,0,0,28.15,60.51Z"/><path class="cls-1" d="M44.72,61.11l-.27.07.09,0Z"/><path class="cls-1" d="M28.22,60.54a28.45,28.45,0,0,0,6.16,1.35h0a29.88,29.88,0,0,1-4.33-.79C29.43,60.92,28.82,60.74,28.22,60.54Z"/><path class="cls-1" d="M42.45,61.6c-.64.11-1.27.21-1.92.27h0C41.17,61.81,41.81,61.72,42.45,61.6Z"/><path class="cls-1" d="M43,61.5c.19,0,.37-.08.56-.12C43.37,61.42,43.19,61.47,43,61.5Z"/><path class="cls-1" d="M24.2,58.83l-.67-.35Z"/><path class="cls-1" d="M37.43,3.91h0A33.61,33.61,0,1,0,71,37.52,33.61,33.61,0,0,0,37.43,3.91ZM67.13,37.8c-.51-.06-1-.09-1.52-.13a23,23,0,0,1-.12,2.63c.53-.08,1.06-.13,1.57-.19a29.74,29.74,0,0,1-59.26,0c.51.06,1,.11,1.58.19a23.87,23.87,0,0,1-.13-2.67c-.5,0-1,.06-1.49.12V36.56L9.26,36a30.6,30.6,0,0,1,.35-3.48c-.5.09-1,.19-1.51.3.09-.57.2-1.13.31-1.67.54-.28,1.09-.54,1.64-.79a25.55,25.55,0,0,1,1.13-3.57c-.55.15-1.09.32-1.62.5.23-.59.45-1.13.68-1.7q1-.75,2.13-1.44a28.2,28.2,0,0,1,50.1-.05c.74.47,1.47,1,2.19,1.48.23.57.45,1.1.68,1.7-.55-.18-1.1-.33-1.65-.49a27.51,27.51,0,0,1,1.13,3.61c.55.26,1.11.5,1.65.78.12.54.23,1.1.31,1.67l-1.52-.3A31.13,31.13,0,0,1,65.6,36c.51.19,1,.38,1.53.6V37.8Z"/><path class="cls-1" d="M46.25,60.66l.32-.1Z"/><path class="cls-1" d="M28.36,38.06h0l0,0Z"/><path class="cls-1" d="M26,28.23l2,2A33,33,0,0,1,42.27,27l-.85-1.13c-1-.06-1.92-.11-2.91-.11a32.43,32.43,0,0,0-9.59,1.42l-1.84-1.84c-1.28-.11-2.58-.2-3.9-.2a40.54,40.54,0,0,0-12,1.6,25.55,25.55,0,0,0-1.13,3.57A40.51,40.51,0,0,1,24.49,26.7Z"/><path class="cls-1" d="M25.9,38.37c.81-.14,1.62-.25,2.44-.31l-6-6a42.82,42.82,0,0,0-5.06-.31,39.72,39.72,0,0,0-7.69.7A30.6,30.6,0,0,0,9.26,36,40.34,40.34,0,0,1,21,33.42Z"/><path class="cls-1" d="M55.61,27.37a39.81,39.81,0,0,1,9.21,3,27.51,27.51,0,0,0-1.13-3.61,41.12,41.12,0,0,0-9.21-1.58C54.88,25.9,55.27,26.6,55.61,27.37Z"/><path class="cls-1" d="M20.71,18.89a37.36,37.36,0,0,1,27.07-2.55,44.92,44.92,0,0,1,3.37,3.79c.34-.26.7-.48,1.1-.74a40.88,40.88,0,0,1,10.22,4.66,28.2,28.2,0,0,0-50.1.05,40.23,40.23,0,0,1,9.19-4.33Z"/><path class="cls-1" d="M37.05,31.75a29.29,29.29,0,0,0-8.94,3.73l2.57,2.57a20.25,20.25,0,0,1,3.65.06,30.52,30.52,0,0,1,1,4.53l3.82,3.88,6.33-6.37-8-8Z"/><path class="cls-1" d="M41.15,33.53,46.64,39l3.11-3.11a29.36,29.36,0,0,0-9-2.71Z"/><path class="cls-1" d="M33.74,43.45a30.7,30.7,0,0,0-8.4-1.33l9.45,9.45.28-6.79h0Z"/><path class="cls-1" d="M54.06,38.45c-.9-.59-1.84-1.19-2.8-1.73l-5.6,5.63L40,48l.53,13.86c.65-.06,1.28-.16,1.92-.27l.55-.1c.19,0,.37-.08.56-.12s.59-.12.89-.2l.27-.07c.52-.14,1-.29,1.53-.45l.32-.1A30,30,0,0,0,50,59.15h0A28.92,28.92,0,0,0,65.39,40.31h.1a23,23,0,0,0,.12-2.63c-1-.07-2-.12-3-.12A41.09,41.09,0,0,0,54.06,38.45Z"/><path class="cls-1" d="M23.53,58.48l.67.35.69.35a27.16,27.16,0,0,0,3.26,1.33l.07,0c.6.2,1.21.38,1.83.55a29.88,29.88,0,0,0,4.33.79l.26-5.83.08-2.23L23.07,42.16h-.23a33.78,33.78,0,0,0-6.17.91,11.36,11.36,0,0,1-.59-1.39,31.36,31.36,0,0,1,4.56-2L19,38.07c-.51-.08-1-.17-1.53-.23l-1.73-.2c-1.16-.08-2.32-.14-3.51-.14-1,0-2,0-3,.13a23.87,23.87,0,0,0,.13,2.67h.09A28.79,28.79,0,0,0,23.53,58.48Z"/><path class="cls-1" d="M57.42,31.8c.25.71.48,1.42.71,2.15A40.34,40.34,0,0,1,65.6,36a31.13,31.13,0,0,0-.34-3.51,39.52,39.52,0,0,0-7.67-.7Z"/><text class="cls-2" transform="translate(146.6 52.59)">e<tspan class="cls-3" x="8.64" y="0">W</tspan><tspan x="22.3" y="0">allet P</tspan><tspan class="cls-4" x="66.87" y="0">r</tspan><tspan x="72.46" y="0">o</tspan></text></svg>