<svg id="Layer_1" data-name="Layer 1" xmlns="http://www.w3.org/2000/svg" viewBox="0 0 630.42 125.01"><defs><style>.cls-1{fill:#fff;}</style></defs><title>investec</title><g id="_81WN49" data-name="81WN49"><path class="cls-1" d="M24.87,43.23c7.47,0,14.94,0,22.41,0,1,0,1.21-.26,1.21-1.21q-.05-13.15,0-26.3c0-.83-.16-1.17-1.07-1.05a31.36,31.36,0,0,0-15.87,6.43,29.65,29.65,0,0,0-10.3,14.74,1.8,1.8,0,0,1-2.15,1.52c-2.44-.1-4.88-.07-7.32,0-1,0-1.12-.26-.84-1.17,2.82-9,8.5-15.78,16.53-20.64A43,43,0,0,1,47.55,9.41c.79,0,.93-.34.93-1,0-2.4,0-4.8,0-7.2,0-.86.17-1.19,1.12-1.18,3,0,3,0,3,3,0,13,0,25.92,0,38.88,0,1.08.25,1.4,1.37,1.4,14.86,0,29.73,0,44.59,0,1.08,0,1.54.16,1.48,1.4-.11,2.57,0,2.57-2.58,2.57-1.72,0-3.43,0-5.15,0-.63,0-1,.14-1,.88a32,32,0,0,1-7.39,18c-6.48,7.89-14.93,12.44-24.89,14.35-.78.15-.92,0-.9-.74,0-1.29.05-2.59,0-3.89,0-.69.27-.92.86-1.09A30.41,30.41,0,0,0,78,59a28.58,28.58,0,0,0,3.15-10.77c.07-.79-.17-1.05-1-1.05q-13.32,0-26.64,0c-1.09,0-1,.55-1,1.28q0,20.24,0,40.48c0,1.49,0,1.49-1.46,1.49-2.6,0-2.6,0-2.6-2.65,0-1.83,0-3.66,0-5.49,0-.88-.24-1.22-1.14-1.26a41.37,41.37,0,0,1-18.08-5.07C19.62,70.67,13,63,10.36,52.09a18.28,18.28,0,0,1-.57-3.94c0-.75-.31-1-1-1-2.25,0-4.5,0-6.75,0-.69,0-.91-.2-.93-.9-.07-3.06-.1-3.06,3-3.06Zm9.32,4H30.77c-3.31,0-6.63,0-9.94,0-.82,0-1.11.26-1,1.05,0,.26,0,.53.07.8A30.7,30.7,0,0,0,30.71,68.64a31.09,31.09,0,0,0,16.54,7.07c.92.12,1.25-.11,1.24-1.12q-.06-13.14,0-26.27c0-.91-.26-1.16-1.16-1.15C43,47.21,38.57,47.18,34.19,47.18Z" transform="translate(-1.06)"/><path class="cls-1" d="M189.1,77a42.83,42.83,0,0,1,7-4.3,31.64,31.64,0,0,1,16.16-3.55c6.09.41,11.76,2,16.26,6.44a12.57,12.57,0,0,1,3.87,9.3c0,11.51,0,23,0,34.53,0,2.21.59,2.86,2.78,3.26.51.09,1.22-.2,1.51.42.39.84,0,1.37-1,1.37q-9.6,0-19.21,0c-.38,0-1,.37-1.06-.55,0-.73,0-1.2,1-1.17a4.4,4.4,0,0,0,2-.47,2.18,2.18,0,0,0,1.39-2.14c0-10.71.05-21.42,0-32.12,0-6.28-3.77-10.41-10.35-11.7a23.15,23.15,0,0,0-18.86,4.26,3.52,3.52,0,0,0-1.63,3.2c.07,11.81,0,23.63,0,35.44,0,2.3.69,3,3,3.5.45.09,1.32-.37,1.37.7,0,.77-.05,1.11-1,1.11-6.44-.05-12.88,0-19.32,0-.42,0-1,.28-1-.62,0-.69,0-1.12.93-1.1a5.55,5.55,0,0,0,2-.46,2.12,2.12,0,0,0,1.47-2.19q0-19.55,0-39.1a4.87,4.87,0,0,0-4.42-5.2c-.4-.07-.82,0-.82-.63a.89.89,0,0,1,.69-1l15.61-5.61c1.22-.44,1.67-.13,1.7,1.24,0,2.17,0,4.34,0,6.52C189,76.46,189.07,76.63,189.1,77Z" transform="translate(-1.06)"/><path class="cls-1" d="M561.19,111c0,1.49,0,2.73,0,4,0,.49-.38.63-.66.86-5.71,4.65-12.09,7.82-19.49,8.66-5.46.62-10.95.88-16.35-.29-11.51-2.49-19.87-8.75-23.27-20.43-2.58-8.87-.26-16.76,5.63-23.64,5.06-5.91,11.73-9,19.29-10.33a38.09,38.09,0,0,1,19.79,1.38c6.34,2.3,11.43,6.1,14.21,12.48a23.07,23.07,0,0,1,1.79,8.07c0,.92-.16,1.2-1.15,1.2q-20.52-.06-41,0c-1.71,0-3.43,0-5.14,0-.5,0-.73.08-.75.67a26,26,0,0,0,4,15.64,20.9,20.9,0,0,0,14.71,9.25c9.22,1.47,17.71-.7,25.53-5.67C559.17,112.23,560,111.7,561.19,111ZM532,73.26c-.75.08-1.9.11-3,.32-7.84,1.43-12.33,6.32-14.2,13.88-.23.92,0,1.14,1,1.14,10.51,0,21,0,31.54,0,.19,0,.38,0,.57,0,.4,0,.53-.16.52-.54-.12-4.27-1.34-8.09-4.67-11S536.59,73.38,532,73.26Z" transform="translate(-1.06)"/><path class="cls-1" d="M375.1,111.09a2.93,2.93,0,0,1,.09.38c.17,4,.14,3.94-3.08,6.26a38.57,38.57,0,0,1-22.75,7.2c-5.56.07-11-.25-16.24-2.32-9.61-3.81-15.94-10.52-18.12-20.77-1.61-7.58.4-14.4,5.06-20.44,5.16-6.69,12.22-10.2,20.4-11.61,7.09-1.22,14.09-.92,20.84,1.81,6.9,2.8,12,7.4,14,14.79a25.49,25.49,0,0,1,.83,5.39c.05.88-.15,1.14-1.08,1.14-5.72,0-11.43,0-17.15,0-9.49,0-19,0-28.47,0-1.22,0-1.37.37-1.39,1.45a26.38,26.38,0,0,0,2.9,13c3.34,6.39,8.82,10,15.78,11.14,8.94,1.49,17.27-.53,25-5.27ZM345.59,88.58q7.94,0,15.89,0c.42,0,1,.28,1-.61-.15-4.41-1.42-8.36-5-11.16-4.65-3.63-10-4.23-15.58-3-7.35,1.67-11.37,6.68-13,13.81-.18.75.07,1,.84,1C335,88.56,340.29,88.58,345.59,88.58Z" transform="translate(-1.06)"/><path class="cls-1" d="M631.38,110.86a10.06,10.06,0,0,0,0,1.67c.41,2.15-.62,3.43-2.3,4.68-5.55,4.1-11.62,7-18.52,7.55-8.77.71-17.38,0-24.95-5.14-8.06-5.47-12.45-13.11-12.46-22.93,0-6.12,2.46-11.45,6.35-16.1,5.18-6.19,12-9.59,19.8-11a52.11,52.11,0,0,1,30.62,3.84,2,2,0,0,1,1.49,2.24c-.11,2.59-.06,5.18,0,7.77,0,.76-.23.89-.95,1a2.91,2.91,0,0,1-3-1.54c-3.4-4.88-8.33-7.54-14-8.93a22.81,22.81,0,0,0-12.5.28,18.71,18.71,0,0,0-11.72,10.45c-3.41,7.41-3.45,14.87.27,22.18,3.19,6.27,8.56,9.75,15.39,10.94,9.11,1.59,17.4-.6,24.93-5.87C630.27,111.57,630.75,111.28,631.38,110.86Z" transform="translate(-1.06)"/><path class="cls-1" d="M142.15,124.44c-3.16,0-6.32,0-9.49,0-.41,0-1.11.43-1.19-.55-.06-.8.16-1.18,1-1.18a4.78,4.78,0,0,0,1.44-.31c1.51-.51,1.92-1.08,1.92-2.69q0-35.89,0-71.78c0-1.91-1.33-2.72-3.55-3-.6-.08-.85-.17-.85-.84s.22-.9.91-.9q9.77,0,19.54,0c.51,0,.9,0,.83.7-.05.51.15,1-.74,1a5.71,5.71,0,0,0-2,.46,2.38,2.38,0,0,0-1.64,2.46q0,36,0,72c0,1.43.76,2.26,2.43,2.7a4.14,4.14,0,0,0,1.23.21c.95-.05.61.62.68,1.08.1.66-.32.62-.77.62Z" transform="translate(-1.06)"/><path class="cls-1" d="M410.23,124.88a43.73,43.73,0,0,1-17.83-3.38,1.52,1.52,0,0,1-1.14-1.57c-.11-2.74-.31-5.47-.49-8.2,0-.5,0-.86.61-1s.86,0,1.1.61c2.18,5.64,6.57,8.45,12.32,9.37a27.05,27.05,0,0,0,11.88-.23,8.46,8.46,0,0,0,5.92-4.76c1.47-3.44.24-7.12-3.19-9.57a36.21,36.21,0,0,0-8.7-4.15,89.25,89.25,0,0,1-11.25-4.59,18.88,18.88,0,0,1-5.21-3.84c-5.07-5.61-4.59-13.25,1.13-18.34A23.05,23.05,0,0,1,407.53,70c7.62-1.19,15,0,22.18,2.5a1.41,1.41,0,0,1,1.13,1.62c-.07,2.13,0,4.26.06,6.4,0,.34.34.89-.28.86s-1.41.54-1.74-.46a10.24,10.24,0,0,0-1.68-3.21,9.85,9.85,0,0,0-5.76-3.44,30.19,30.19,0,0,0-14.56-.14,9.38,9.38,0,0,0-4.07,2.21,6.6,6.6,0,0,0-.49,9.4,16.67,16.67,0,0,0,6.31,4.18c4.45,1.94,9.16,3.17,13.66,5a30.43,30.43,0,0,1,8.23,4.56,12.28,12.28,0,0,1,.95,18.26c-3.58,3.71-8.12,5.48-13,6.48A33.06,33.06,0,0,1,410.23,124.88Z" transform="translate(-1.06)"/><path class="cls-1" d="M491.45,117.31c.84,1.5,0,2.22-1,3a23,23,0,0,1-14.11,4.65,28.46,28.46,0,0,1-9.62-1.52c-6.91-2.59-10.5-7.89-10.51-15.56q0-15.37,0-30.75c0-1-.27-1.26-1.25-1.22-2.05.08-4.11,0-6.17,0-.62,0-.89-.13-.85-.81a28.13,28.13,0,0,0,0-3.08c0-.68.13-.92.86-.9,2,.06,4,0,6.06,0,1.05,0,1.42-.16,1.38-1.32-.1-2.78,0-5.56,0-8.34,0-.68.09-1,.9-1,3.66.07,7.31.09,11,0,.89,0,1.06.26,1,1.08-.05,2.82,0,5.64,0,8.46,0,.79.21,1,1,1,6.06,0,12.12,0,18.17,0,.91,0,1.32.15,1.2,1.16a11.18,11.18,0,0,0,0,2.4c.1,1-.16,1.29-1.22,1.28-6.06-.06-12.12,0-18.17-.06-1.09,0-1.28.33-1.28,1.33,0,10.52,0,21,0,31.55,0,6.45,3.94,10.62,10.37,11.38,4,.46,7.51-.59,11-2.2Z" transform="translate(-1.06)"/><path class="cls-1" d="M276.95,125l-2.8-5.07q-11.64-21.2-23.28-42.39c-1.22-2.22-2.67-4.28-5.29-5.06a4.74,4.74,0,0,0-1.55-.31c-.93.05-1-.41-1-1.16,0-1,.72-.6,1.13-.6q11.77,0,23.55,0c.44,0,1.1-.34,1.16.62s-.2,1.16-1,1.18a4.14,4.14,0,0,0-1.42.37A2.93,2.93,0,0,0,264.79,77c5.2,10.2,10.41,20.4,15.65,30.67a3.51,3.51,0,0,0,.84-1.37q7.6-14.57,15.17-29.16c1.19-2.3.39-4.09-2.13-4.78a5.48,5.48,0,0,0-1.35-.23c-.87,0-.53-.64-.6-1.06-.09-.59.23-.68.74-.68q8.52,0,17,0c.45,0,.86,0,.79.64-.06.47.23,1-.68,1.11-3,.27-5,2.08-6.46,4.65l-26,46.74C277.55,124,277.29,124.43,276.95,125Z" transform="translate(-1.06)"/><path class="cls-1" d="M85.22,37.35c-1.29,0-2.59-.06-3.88,0-.81,0-1.11-.27-1.34-1a30,30,0,0,0-7.54-12.6A29.14,29.14,0,0,0,59.61,16c-1.31-.37-1.76-1-1.61-2.27a16.72,16.72,0,0,0,0-3c0-.77.21-.85.91-.72a42.46,42.46,0,0,1,19.93,9.3,34.66,34.66,0,0,1,11,16.2c.69,2.15.63,1.76-1.33,1.79C87.43,37.36,86.33,37.35,85.22,37.35Z" transform="translate(-1.06)"/></g></svg>