<svg id="Layer_1" data-name="Layer 1" xmlns="http://www.w3.org/2000/svg" viewBox="0 0 613.7 272.59"><defs><style>.cls-1{fill:#fff;}</style></defs><title>nedbank</title><g id="qPsv4Q"><path class="cls-1" d="M-1,200.93c7.57,0,15.14.18,22.7.08a6.21,6.21,0,0,1,5.31,2.39c11.59,13.32,23.3,26.54,34.93,39.82a14.14,14.14,0,0,1,1.53,2.85l1.41-1c-.18-2.88-.4-5.76-.52-8.65-.27-6.24-.14-12.52-.79-18.72C62.47,207,61,206.91,52.54,205.22v-3.92H78.37c.63,2.67.59,4.43-2.81,4.95-4,.62-6,3.22-6.07,8.17-.11,11-.09,21.94.35,32.89.3,7.52,1.44,15,2,22.52.09,1.09-.72,3.23-1.14,3.24-2.58,0-5.37,1.26-7.63-1.38-6.48-7.59-13.11-15-19.69-22.55q-12.9-14.72-25.81-29.44c-.71-.81-1.33-1.69-2-2.54l-.82.37c0,5.84-.15,11.68,0,17.51.24,7.22.53,14.45,1.21,21.64.76,8,3.26,10.26,11.59,11.16v4.06H0V268c8.71-2,10.42-4.11,10.38-13.31-.06-13.05-.36-26.11-.17-39.16.06-4-1.55-6.2-4.77-7.67C3.39,207,1.18,206.32-1,205.54Z" transform="translate(0.96 -0.8)"/><path class="cls-1" d="M388.14,83.89c.7,44.06-35.58,83.72-83.94,83.27-44-.41-82.21-35.3-82.29-83.07C221.83,35.32,261.9-.18,307,.82S388.63,39.09,388.14,83.89Zm-9,.11a74,74,0,1,0-74.05,74C348.1,158,379.21,123,379.11,84Z" transform="translate(0.96 -0.8)"/><path class="cls-1" d="M327.69,234.75c3.81,1.32,7.68,2.24,11.17,4,11.82,5.85,13,19.85,2.52,27.94-5.46,4.2-11.85,5.48-18.54,5.5-15.47.05-30.94,0-46.41,0a14.17,14.17,0,0,1-1.82-.26v-3.84c7.41-1.78,8.36-2.24,8.53-9.5q.53-21.87,0-43.76c-.19-7.36-1.47-8.2-8.74-9.76v-3.82c1.08-.05,2.12-.15,3.17-.15,14.7,0,29.41-.24,44.1.13a49.2,49.2,0,0,1,14.7,2.83c5.85,2,9.63,6.35,9.8,13S343,228.14,337.44,231A101.74,101.74,0,0,1,327.69,234.75Zm-25.76,2.39c0,8.51-.33,16,.13,23.35.26,4.21,3.5,6.61,7.85,7.08a28.13,28.13,0,0,0,5.21,0c8-.64,12.77-5.13,13.78-12.84.87-6.65-3.46-13.94-10.35-15.67C313.26,237.74,307.61,237.75,301.93,237.14Zm-.5-17.87h0c0,3.83-.09,7.67.07,11.49,0,.83,1,2.34,1.47,2.33,5.22-.14,10.57.09,15.6-1,5.38-1.19,8.53-6.83,8.2-12.4-.4-6.73-4.25-12.35-10-13.47-4-.78-8.26-.48-12.39-.82-2.41-.2-3,.89-3,3.06C301.51,212,301.43,215.66,301.43,219.27Z" transform="translate(0.96 -0.8)"/><path class="cls-1" d="M181.06,205.19v-3.88a22.86,22.86,0,0,1,2.31-.24c15.35,0,30.71-.18,46.05.08,9.68.17,18.51,3,25.46,10.31,15.3,16.19,12.67,50.72-17.61,59a48.37,48.37,0,0,1-12,1.63c-13.92.19-27.85.08-41.78.06a21.6,21.6,0,0,1-2.39-.28V268c8.08-1.48,8.85-2.06,9-10.69.21-14.67.12-29.35,0-44C190.05,207.94,187.88,206.14,181.06,205.19Zm27.32,26.42h.57c0,9.31-.2,18.62.09,27.93.13,4.37,2.53,7,6.84,7.63,11.27,1.67,21.28-1.4,25.75-13a44.72,44.72,0,0,0-.36-33.62c-3-7.44-8.26-13-16.67-14.3-4.31-.66-8.74-.49-13.1-.88-2.53-.23-3.21.77-3.17,3.17C208.45,216.25,208.38,223.93,208.38,231.6Z" transform="translate(0.96 -0.8)"/><path class="cls-1" d="M560.67,239.1c0,8-.26,15,.09,21.94.23,4.61,2.49,6.15,8.05,6.75,1.16,3.84.84,4.37-2.81,4.38q-14.81,0-29.62,0c-1,0-1.92-.16-3-.26V268c7.92-1.34,9.1-2.74,9.11-10.77q0-20.41,0-40.81c0-8.26-1.17-9.72-9.13-11.36v-3.72h36.24V205c-8,1.83-9,3.12-9,11.34q0,8.06,0,16.13a2.36,2.36,0,0,0,.18.63c.2,0,.49.21.59.13,6.66-5.53,13.32-11,19.91-16.65a15.41,15.41,0,0,0,2.84-3.6c2.45-3.91,1.44-6.29-3.08-7.46-.5-.13-1-.21-1.6-.32v-3.93h28.26c.75,2.79.53,4.51-2.94,5.08a15.46,15.46,0,0,0-6.74,3.19c-7.87,6.26-15.54,12.77-23.53,19.39,4.64,5.33,9,10.37,13.39,15.39,4.11,4.71,8,9.62,12.44,14,3.36,3.35,7.43,6,11.06,9.05a4.36,4.36,0,0,1,1.35,2.8c0,.61-1,1.84-1.57,1.84-5.47,0-11,.32-16.41-.39-5.09-.68-9.31-3.6-12.69-7.61-5.94-7-11.94-14-17.92-21C563.23,241.93,562.27,240.9,560.67,239.1Z" transform="translate(0.96 -0.8)"/><path class="cls-1" d="M470.91,267.75v4.18H443.16v-4c.65-.1,1.36-.25,2.08-.32,4.58-.41,7.87-2.9,8.19-7.49.56-8.07.58-16.19.59-24.28,0-6.79-.57-13.59-.37-20.37.1-3.58-1.1-5.8-4.13-7.31a14.73,14.73,0,0,0-3.53-1.71c-3.06-.56-3.64-2.31-2.7-5.35,8.05,0,16.25-.07,24.44.1.92,0,1.94,1.28,2.71,2.14Q487.88,223,505.27,242.8c.72.81,1.46,1.6,2.9,3.17,0-3.39.11-5.93,0-8.45-.38-7.43-.71-14.87-1.33-22.29-.54-6.44-2.25-8.16-8.41-9.49l-2.61-.56v-3.89h26.28c.8,2.75.52,4.43-2.93,4.94a6.47,6.47,0,0,0-5.89,6.87c-.06,17.6-1.21,35.25,1.72,52.76.37,2.23.05,4.57.05,7.07-3.62.67-6.65.8-9.56-2.59-14.65-17-29.57-33.86-44.4-50.75-.7-.8-1.46-1.55-2.91-3.08,0,3.34-.07,5.76,0,8.17q.46,14.12,1,28.24a36.9,36.9,0,0,0,.61,5.2C461,265,463.49,267.15,470.91,267.75Z" transform="translate(0.96 -0.8)"/><path class="cls-1" d="M169,255.61c-.84,4.94-1.61,9.89-2.62,14.79a3,3,0,0,1-2.23,1.69,67,67,0,0,1-6.9.1h-61V268c.16-.1.34-.33.5-.32,5.54.3,8.41-2.27,8.47-9.1.09-11,0-21.94,0-32.91,0-3.18,0-6.36,0-9.54-.06-8-1.3-9.51-9.07-11.08v-3.74h68v14.3c-3.56.71-6.49.55-9-2.95-3.54-4.88-8.83-7-14.85-7.18-4.72-.1-9.44,0-14.15-.11-2-.05-2.67.73-2.65,2.7q.11,10.86,0,21.72c0,2.06.55,3,2.78,2.9,5.13-.29,10.28-.3,15.41-.68a8.54,8.54,0,0,0,7.62-5.94c1.19-3.29,3.69-2.28,5.69-2,.71.1,1.54,2.26,1.58,3.5.17,5.37.14,10.75,0,16.12,0,.92-1,2.61-1.5,2.59-1.78-.05-4.71-.2-5.11-1.17-2.67-6.48-7.7-8.19-14-8.06-3.4.07-6.81-.12-10.2,0-.76,0-2.1,1.08-2.1,1.66,0,7.23-.18,14.48.4,21.67.38,4.69,3.26,6.62,8,7.14,11.58,1.27,21.33-1.82,29.06-11,1.34-1.6,4.77-1.44,7.23-2.1Z" transform="translate(0.96 -0.8)"/><path class="cls-1" d="M378.74,267.93v4H354.93v-4.25c7.84-.51,9.84-7,12.23-13,5.28-13.32,10.49-26.66,15.73-40,.92-2.34,2.33-4.62,2.62-7s-.61-4.73-1-7.33c5.49,0,11.18-.1,16.85.11.86,0,2,1.41,2.44,2.41,6.91,17.49,13.68,35,20.59,52.53a45.82,45.82,0,0,0,4.39,8.76c1,1.49,3.14,2.19,4.61,3.42a4.06,4.06,0,0,1,1.57,2.49c0,.68-1.12,2-1.76,2-10.84.12-21.68.09-32.79.09v-4.27c.8-.19,1.75-.34,2.65-.63,3.83-1.25,5.12-3.43,3.88-7.23-1.42-4.36-3.05-8.66-4.86-12.87a3.92,3.92,0,0,0-2.93-1.85c-6.69-.17-13.38-.18-20.07,0a4.15,4.15,0,0,0-2.94,2.19,72.73,72.73,0,0,0-3.2,9.28C371,263.54,372.14,265.63,378.74,267.93Zm20.49-28.53L389,213.51l-.79.12-9.1,25.77Z" transform="translate(0.96 -0.8)"/><path class="cls-1" d="M357.19,84.19c0,10.2-.07,20.4.05,30.6a5.18,5.18,0,0,1-2.65,5.06q-10,6.4-19.63,13.23c-1.87,1.31-3.14,1.18-4.94,0-6.67-4.41-13.49-8.6-20.16-13-1.86-1.23-3.25-1.38-5.22-.06-7,4.69-14.21,9.1-21.25,13.74-1.78,1.17-3.11,1.37-5,.19-7.83-4.83-15.82-9.41-23.63-14.28a4.91,4.91,0,0,1-1.94-3.57q0-31.58.37-63.16A5.69,5.69,0,0,1,255.32,49c7-5.07,14.22-9.87,21.26-14.9,1.73-1.24,3-1.12,4.67,0,7.58,4.81,15.28,9.45,22.86,14.27a3.29,3.29,0,0,0,4.33-.08c6.61-4.7,13.39-9.16,20-13.87,1.93-1.38,3.29-1.34,5.22,0q10.41,7.2,21.07,14a5,5,0,0,1,2.52,4.82C357.13,63.57,357.19,73.88,357.19,84.19ZM258.69,53.6l92.53,60.32c.13-1.38.25-2.1.26-2.83.13-18.08.21-36.17.4-54.25a4.61,4.61,0,0,0-2.47-4.51c-4.67-2.86-9.21-5.93-13.81-8.89-1-.68-2.14-1.28-4-2.36V73.51c-1.36-.82-2.11-1.24-2.82-1.71Q307.42,57.66,286,43.51c-6.27-4.15-6.27-4.18-12.48,0C268.77,46.72,264,50,258.69,53.6ZM301.06,115,280.9,101.74v26.37Z" transform="translate(0.96 -0.8)"/></g></svg>