<svg id="Layer_1" data-name="Layer 1" xmlns="http://www.w3.org/2000/svg" viewBox="0 0 3672 836.63"><defs><style>.cls-1{fill:#fff;}</style></defs><title>OTT-voucher-logo</title><path class="cls-1" d="M392.66,798.31c-21.7-5-43.66-9-65-15.13C157,734.62,43.49,573.66,53.94,395.84,64.16,221.7,199.4,73.53,373,46.28,616,8.14,830.33,205,812.24,449.81,799.31,624.74,660,772.06,486.15,794.7c-4.27.55-8.37,2.38-12.55,3.61ZM345.74,326.83c-.69,3.86-1.51,6.31-1.52,8.76-.09,118.38-.3,236.75.46,355.12,0,5.34,8.09,13.78,13.93,15.44,47.89,13.63,96.13,12.69,144.71,2.23,15.27-3.29,18.81-10.36,18.73-24.89-.55-112.61-.28-225.23-.36-337.84,0-6.1-.85-12.19-1.34-18.82ZM662,232.67c-123.7-152.89-355-135.56-455.86,0Zm51.93,94.19H615.77V652.15C720,576.54,755.61,429.3,713.92,326.86Zm-463.13-.74c-28.26,0-55.75.94-83.13-.39-14-.68-18.8,4.76-21.85,17.12-23.76,96.33-5.66,183.85,55.41,262.1,13.48,17.27,29.49,32.58,44.34,48.8l5.23-4.16Z"/><path class="cls-1" d="M3618.73,379.75c-13.27,43.65-45.94,60.22-92.12,62.1l88.91,105.26c-13.72,17.14-22.87,18.13-36.18,2.8-24.77-28.52-49.61-57.09-72.56-87-13.57-17.74-28.42-26.53-53.51-19,0,21.88,0,45.28,0,68.69,0,12.15,1.19,24.54-.91,36.33-.81,4.53-9,10.11-14.36,10.7-3.9.42-9.7-5.87-12.59-10.45-2.06-3.29-.86-8.71-.86-13.18q-.06-114.16,0-228.33c0-24.67,3.22-27.72,27.74-27.78,25-.06,50.1-.57,75.11.27,43,1.46,77.95,15.62,91.33,61.27ZM3454,307.19V414.67c4.31.72,8,1.91,11.66,1.85,23.65-.35,47.41.33,70.9-1.83,33.48-3.09,51.24-22.46,51.46-52.86.22-31.46-17.74-51.67-52.07-54.24C3509.39,305.59,3482.52,307.19,3454,307.19Z"/><path class="cls-1" d="M1066.44,569.33c-88.29-.29-149-62.28-148.06-151.23.9-86,62.56-147,148.78-147.28,88-.27,149.45,61.8,149,150.48C1215.82,508.35,1153.83,569.62,1066.44,569.33Zm2-58.56c49.22-.33,83-37.72,82.49-91.25-.54-54.39-35.29-91.14-85.57-90.5-49.27.64-81.68,37.57-80.9,92.21C985.17,475.4,1018.65,511.1,1068.39,510.77Z"/><path class="cls-1" d="M1598.18,333.78c-22.49,0-42.85.23-63.21-.07-23.07-.33-32.41-8.69-32.65-28.4s9.17-28.87,32-29q96.33-.48,192.65,0c22,.12,30.93,8.82,31.13,27.8.22,20.24-8.94,29.13-31.42,29.55-19.84.37-39.69.08-61.78.08-.34,7.61-.89,14.33-.9,21-.07,58.86.2,117.72-.19,176.58-.16,25.44-9,33.71-33.48,33.81s-31.92-6.88-32-32.17c-.27-58.86-.09-117.72-.1-176.58Z"/><path class="cls-1" d="M1389.78,333.78c0,15.91,0,29.8,0,43.7q0,75.79,0,151.58c.06,33.82-15.66,40.3-48.49,34.64-17.07-3-17.31-18.47-17.34-32.18q-.17-87.3-.06-174.61V333.79c-21.55,0-41.2.14-60.86,0-25-.22-34.4-7.93-34.77-28.18-.37-20.54,9.06-29.2,33.56-29.3q94.37-.34,188.74,0c24.5.09,33.81,8.73,33.39,29.39-.4,19.73-9.56,27.74-32.9,28.05C1431.33,334,1411.6,333.78,1389.78,333.78Z"/><path class="cls-1" d="M2191.35,275c82.33.28,138.6,58.9,138.41,144.18-.18,85.58-57.86,145-140.48,144.84-81.92-.2-138.82-59.46-138.59-144.36C2050.92,334.19,2108.75,274.72,2191.35,275ZM2190,537.94c64.21.31,109.37-48.46,109.28-118-.09-68.56-46.13-119.26-108.84-119.85s-109.14,49.78-109.22,118.8S2126.51,537.63,2190,537.94Z"/><path class="cls-1" d="M3218.31,306.79v95.87h114.92c9.69,0,21-1.3,21.29,12.72S3343.85,429,3333.92,429H3219.2V532.2h19.93c43,0,86-.09,129,.09,8.72,0,19.16-1.54,19.6,12.15.45,14.14-9.58,14.61-19.67,14.62-52,.05-104-.19-156,.14-17.08.11-24.36-7.35-24.3-24.34q.43-115.12,0-230.26c-.09-17.86,7.13-25.28,25.37-25,49.42.65,98.86.15,148.3.28,10.55,0,24.15-2.81,23.8,14-.32,15.35-13,12.86-23,12.89C3314.82,306.85,3267.45,306.79,3218.31,306.79Z"/><path class="cls-1" d="M2936.79,405.15h168.67c0-23.43,0-46.19,0-69,0-14.08-1.37-28.36.71-42.13.88-5.84,9-10.58,13.87-15.82,4.82,5.31,9.66,10.61,14.42,16,.33.37.09,1.24.09,1.88,0,81.9.22,163.8-.41,245.69,0,6.1-4.85,15.82-9.69,17.52-11.92,4.18-19.25-1.58-19.08-15.53.38-29.42.1-58.86.09-88.29V434H2936.79c0,35.49.06,69.87,0,104.26,0,10,2.28,21.69-13.72,22.14-16.87.49-15.79-11.6-15.8-22.52q-.15-119,0-238c0-10.41-.49-21.55,14.84-21.62s14.84,10.54,14.79,21.3C2936.69,334.06,2936.79,368.54,2936.79,405.15Z"/><path class="cls-1" d="M2556.43,379.58q0-40.27,0-80.54c0-10.69-.15-21.22,15.24-20.91,14,.29,14.21,9.65,14.17,19.94-.17,51.77.52,103.56-.29,155.33-1.4,90.73-85.6,140.12-167.22,98.41-30-15.33-46.57-41.59-48.14-73.74-3-61.21-2.83-122.59-2.73-183.9,0-5.29,8.54-13.86,14.38-15.15,11.22-2.46,15.08,5.92,15,16.62-.2,46-.12,92.05,0,138.07,0,10.23-.31,20.53.77,30.66,6.57,61.69,64.62,92.78,120.52,64.55,25-12.6,35.22-35.18,36.63-61.19,1.58-29.3.36-58.76.36-88.15Z"/><path class="cls-1" d="M2856.75,483.45c18.17,10.14,20.76,19.22,8.78,35.24-21.85,29.25-53.34,41.11-88.21,44.69-61.5,6.31-115-22.83-139.55-74.86C2610.6,431,2622,355.3,2664.24,313.31c39.71-39.51,108.23-51.08,161-25.32,13.91,6.79,26.12,18.1,37.19,29.23,7.94,8,8.17,19.07-2.22,26.78-11.16,8.29-13.88-3.78-18.95-9-31.59-32.63-69.56-42.48-112.52-29.12-44.79,13.93-68.58,47.71-72.42,92.23a183.63,183.63,0,0,0,10.23,76.49c14,38.33,45.37,59.66,86.78,62.77,43,3.24,78.38-10.28,99.4-50.78C2853.2,485.57,2854.62,485,2856.75,483.45Z"/><path class="cls-1" d="M1799.27,285.34c21.93-11.11,29.43-8.3,37.56,13.5q39.17,105,78,210.09c1.76,4.74,3.68,9.44,6.67,17.07,3.61-8.76,6.39-15,8.79-21.44q38.57-103.15,77.07-206.34c8.18-21.81,14-24,35.47-12.94-1.73,5.5-3.24,11.46-5.45,17.15q-46,118.77-92.23,237.48c-4.21,10.84-7.66,21.12-23.06,21.47-16.18.37-20.31-9.86-24.86-21.63q-46.32-119.69-92.94-239.25C1802.45,295.79,1801.09,290.91,1799.27,285.34Z"/></svg>