<svg id="Layer_1" data-name="Layer 1" xmlns="http://www.w3.org/2000/svg" viewBox="0 0 546.91 272.92"><defs><style>.cls-1{fill:#fefef9;}.cls-2{fill:#e5ea95;}</style></defs><title>payu</title><g id="KVp0Nt"><path class="cls-1" d="M489.93,102.88q0,31,0,62c0,34.08-15,53.09-48.23,60.42-20.37,4.49-40.75,3.79-60.54-3.17-22-7.73-34.48-23.65-36.11-46.77-2.18-30.92-.7-61.94-.68-92.91,0-9.59,4-13,13.54-13.67a107.81,107.81,0,0,1,17.46,0c10.5.91,13.71,4.15,13.75,14.87.11,25.32.09,50.65.12,76,0,2.83-.1,5.67,0,8.5.57,11.8,6,17.93,17.56,20.07a58.76,58.76,0,0,0,22.82-.32c9.93-2.08,15.17-8.86,15.26-19.9.15-17.33.08-34.65.09-52,0-11-.09-22,.06-33,.13-9.79,3.71-13.41,13.53-14.2,3.14-.25,6.29-.47,9.43-.71l-.11-.1c-1.58,9.64-1.07,19.34-.4,29,.29,4.12,3.22,6.3,7.57,6.21,5-.11,9.91-.1,14.86-.14Z"/><path class="cls-1" d="M0,154.88c0-19.83.05-39.66,0-59.48A45.11,45.11,0,0,1,1.27,85C3.4,75.81,9.59,69.76,19.46,69.09c20.27-1.36,40.66-2.29,60.82,1,19.34,3.11,30.68,14.86,34.09,34.15a82.07,82.07,0,0,1-.71,32.77c-3.93,17.23-16.92,28.48-35.56,31-16.92,2.29-33.93.78-50.9,1-4.33.05-5.52,1-5.41,5.39.33,13.66.15,27.32.1,41,0,3.67.12,7.85-4.06,9.39-4.94,1.82-10.3,2.11-15-.74-3-1.8-2.84-5.42-2.84-8.63q0-15.25,0-30.49Q0,169.88,0,154.88ZM21.9,120.77c0,5.16-.12,10.33,0,15.48.13,4.11-1.83,9.43.81,12s7.93.82,12,.74c13.13-.25,26.31,1,39.4-.92,9.44-1.37,16.07-6.16,18.47-15.73A53.44,53.44,0,0,0,93.57,111C91.18,95.78,84.35,89.54,68.94,89c-12.8-.49-25.64-.33-38.45-.2-6.39.07-8.5,2.51-8.56,9C21.86,105.45,21.91,113.11,21.9,120.77Z"/><path class="cls-1" d="M279.69,227.2c-2.81-.64-5,.52-7.31.67-11.62.73-20.59-4.78-25.19-15.85-3.83-9.22-6-19-8.66-28.57-6-21.81-11.94-43.62-17.71-65.49-1-3.88-3.69-8.69,2.49-11,6.56-2.49,14.81,0,16.68,5.49,2.68,7.83,4.75,15.88,6.95,23.88,5.74,20.84,11.34,41.72,17.13,62.54,2.1,7.56,4.8,10,10.45,10.25,8.19.42,11.25-1.62,13.37-10.18,6.48-26.12,12.72-52.3,19.06-78.46.27-1.13.59-2.25.87-3.38,2.35-9.5,5.6-11.79,15.26-10.74,6,.65,7.75,3.1,6.26,9.16C325,133.42,320.6,151.35,316,169.23c-5.66,22.06-10.31,44.37-17,66.17a77.71,77.71,0,0,1-6,14.26c-8.54,15.78-22.32,22.7-39.71,23.26-6,.19-8.93-3.67-9.36-11.62-.28-5.23,1.06-6.51,7.65-7.31C267.53,252.06,276,244,279.69,227.2Z"/><path class="cls-1" d="M212,165.59c0,9,.12,18,0,27-.26,15.74-8,26.85-23.05,31.32-18.59,5.52-37.43,6.58-55.59-1.71-14.48-6.61-19-19.2-18.34-34.18.6-14.25,7.23-24.2,20.89-29.24,9.39-3.47,19.12-4.09,29-4.2,7.5-.09,15-.11,22.49.06,3,.07,4.29-.88,4-4-.19-2.15,0-4.33,0-6.49,0-14.66-6.25-21.33-20.92-22.19a126.5,126.5,0,0,0-35.23,2.4c-5.61,1.26-8.14-.8-8.4-6.56-.43-9.45,1-11.32,10.39-12.91,16.22-2.73,32.5-3.5,48.5,1,17.75,5,26.17,16.35,26.39,34.66.1,8.33,0,16.66,0,25Zm-40,6.08v.39c-5.65,0-11.3-.1-16.95.05a27.3,27.3,0,0,0-5.86,1.11c-9.25,2.34-13.34,7.63-13.36,17.14,0,9.66,4.27,15.58,13.48,17.58a60.54,60.54,0,0,0,29.59-.82c8-2.27,11.8-7.12,12.23-15.58.28-5.47,0-11,.21-16.45.08-2.54-.73-3.55-3.39-3.47C182.69,171.79,177.37,171.68,172,171.68Z"/><path class="cls-1" d="M467.94,61.92c1.16-3.62,3.94-4.65,7.38-4.64,10,0,20-.07,30,0,5.35.06,7.64,2.38,7.67,7.63q.1,15.24,0,30.48c0,5.3-2.28,7.58-7.58,7.64s-10.32-.11-15.47-.18l.09.09c-.19-8.4.86-16.84-.69-25.21-.81-4.34-3.27-7.29-7.63-8.09-4.53-.83-9.14-1.2-13.72-1.77l.11.1c-.71-1.62-.39-3.3-.26-5Z"/><path class="cls-1" d="M529.82,57.23c-3.83,0-7.67,0-11.5,0-3.49,0-5.28-1.81-5.31-5.2-.07-7.83,0-15.66,0-23.5,0-2.95,1.54-4.93,4.45-5,8.16-.2,16.33-.29,24.48-.07,3.23.09,5,2.25,5,5.7-.06,7.5,0,15,0,22.49,0,3.57-1.81,5.59-5.55,5.58h-11.5Z"/><path class="cls-1" d="M513,11.89c-.08,12.2,1.59,11.58-11.47,11.54-12.24,0-11.48,1.2-11.5-11.61C490-1.28,489.33.07,501.82,0,514.52,0,512.94-.46,513,11.89Z"/><path class="cls-2" d="M467.94,61.92,467.82,63Z"/></g></svg>