<?xml version="1.0" encoding="utf-8"?>
<!-- Generator: Adobe Illustrator 25.2.1, SVG Export Plug-In . SVG Version: 6.00 Build 0)  -->
<svg version="1.1" id="Layer_1" xmlns="http://www.w3.org/2000/svg" xmlns:xlink="http://www.w3.org/1999/xlink" x="0px" y="0px"
	 viewBox="0 0 700 175" style="enable-background:new 0 0 700 175;" xml:space="preserve">
<style type="text/css">
	.st0{fill:#FFFFFF;}
	.st1{fill-rule:evenodd;clip-rule:evenodd;fill:#FFFFFF;}
	.st2{fill:#FFFFFF;stroke:#000000;stroke-width:3.4632;stroke-linecap:square;stroke-linejoin:bevel;stroke-miterlimit:3.8636;}
</style>
<g>
	<g>
		<path class="st0" d="M511.6,68.8l5.6,18H506l5.4-18H511.6z M526.6,52.4h-37.8v14.1c2.4,0.4,4.4,0.8,6.2,1l-12.4,39.9
			c-2.7,0.3-5.3,0.8-7.9,1.3v14.1h31.9v-14.1c-2.2-0.4-3-0.8-5.1-1.1l1.1-5.5h18.2l1.7,5.6c-2.2,0.2-4.2,0.6-6.3,1v14.1h36.7v-14.1
			c-2.6-0.5-5.4-1-8.3-1.3L526.6,52.4z"/>
		<path class="st0" d="M373.6,68.8l5.6,18H368l5.4-18H373.6z M388.6,52.4h-37.8v14.1c2.4,0.4,4.4,0.8,6.2,1l-12.4,39.9
			c-2.7,0.3-5.3,0.8-7.9,1.3v14.1h31.9v-14.1c-2.2-0.4-3-0.8-5.1-1.1l1.1-5.5h18.2l1.7,5.6c-2.2,0.2-4.2,0.6-6.3,1v14.1h36.7v-14.1
			c-2.6-0.5-5.4-1-8.3-1.3L388.6,52.4z"/>
		<path class="st0" d="M274.1,122.7v-14.1c2.7-0.5,4.9-0.9,6.7-1.1v-40c-2.5-0.3-4.9-0.7-7.1-1.1V52.4h36.7v14.1
			c-2.9,0.7-6.2,1.1-9.9,1.4v39.2h16.1l2.2-9.4H332v25H274.1z"/>
		<path class="st0" d="M441.2,66.4L437,67l8.2,17h0.3l8.7-16.8c-1.5-0.2-3.1-0.5-4.8-0.8V52.4h30v14.1c-2.4,0.5-4.7,0.9-7,1.3
			l-18.3,31.1v8.7c2.4,0.2,4.7,0.6,7,1.1v14.1h-33.5v-14.1c2.2-0.4,4.4-0.8,6.7-1.1v-7.9L416,67.4c-1.9-0.2-3.9-0.6-5.9-1V52.4h31.1
			V66.4z"/>
		<path class="st1" d="M206.7,52.4v14.1c2.8,0.5,5.1,0.9,7.2,1.2v39.9c-2.4,0.3-4.6,0.7-6.8,1.1v14.1h34.5v-14.1
			c-2.5-0.5-5.2-1-7.9-1.3v-7.1H245c17.5,0,24.3-5.8,24.5-20.5v-5.3c0-15.8-6.8-21.9-24.6-22H206.7z M251,78.1
			c-0.1,4.8-2.3,6.7-7.5,6.7h-9.9V68.5h9.9c5.4,0,7.5,2,7.5,7V78.1z"/>
		<path class="st1" d="M545,56.2h1.5c0.8,0,1.2,0.4,1.2,1.1v0.3c0,0.7-0.4,1.1-1.1,1.1H545V56.2z M542.6,55v1.1
			c0.3,0,0.6,0.1,0.9,0.1v5.2l-0.9,0.1v1.1h3.1v-1.1H545v-1.6h1.4c0.5,0.6,0.8,1.3,1.1,2.1v0.5h2.3v-1.1c-0.3,0-0.8-0.1-1-0.1
			c-0.2-0.7-0.6-1.3-0.9-1.7c0.8-0.2,1.2-0.9,1.2-2v-0.4c0-1.4-0.9-2.2-2.5-2.2H542.6z M546,52.6c3.9,0,6.2,2.2,6.2,6.3
			c0,4.1-2.3,6.3-6.2,6.3c-3.9,0-6.2-2.2-6.2-6.3C539.8,54.9,542.1,52.6,546,52.6z M546,51.6c-4.6,0-7.3,2.7-7.3,7.3
			c0,4.6,2.7,7.4,7.3,7.4c4.6,0,7.3-2.7,7.3-7.4C553.3,54.4,550.6,51.6,546,51.6z"/>
		<path class="st2" d="M129.2,97.2"/>
		<path class="st2" d="M70.9,97.2"/>
		<path class="st0" d="M159.4,2.4l-48.7,0L100,12.5L90.8,2.4l-50.1,0L7.2,85.2l42.9,87.4h40.7l9.3-5.1l9.2,5.1h40.7l42.9-87.4
			L159.4,2.4z M146.8,167.3h-38.1l-8.6-4.8l-8.7,4.8H53.2L13.1,85.4L44.4,7.8l45,0L100,18.7l12.4-10.9l43.2,0L187,85.4L146.8,167.3z
			"/>
		<g>
			<polygon class="st0" points="65.2,61.3 58.1,79.4 73.1,98.5 80.8,76.8 			"/>
			<polygon class="st0" points="118.3,50.4 121.3,52.1 116.2,60.8 133.1,56.9 127.2,41.8 110.6,37.3 101.8,44.8 101.8,56.9 
				98.3,56.9 98.3,44.9 89.5,37.3 72.8,41.8 66.9,56.9 83.8,60.8 78.7,52.1 81.7,50.4 89.3,63.3 74.3,105.8 80.2,124.1 89.1,121.8 
				98.3,116.2 98.3,112.2 82.1,94.9 83.3,91.5 100,96.4 116.7,91.5 117.9,94.9 101.7,112.2 101.7,116.2 110.8,121.8 119.8,124.1 
				125.8,105.8 110.7,63.3 			"/>
			<polygon class="st0" points="90.1,125.1 81.3,127.4 85.2,139.4 91.9,139.4 100,135.1 108.1,139.4 114.8,139.4 118.7,127.4 
				110,125.1 			"/>
			<polygon class="st0" points="119.2,76.8 126.9,98.5 141.9,79.4 134.8,61.3 			"/>
		</g>
	</g>
	<g>
		<g>
			<path class="st0" d="M578.9,65L680,61.4l11.3,10.5l0.9,25.2l-11.3,10.2l-99.5,3.5l-12-9.3l-0.9-25.2L578.9,65z M611,79.2
				c0.7-6.2-2.2-8.9-9.7-8.7l-15.8,0.6l-0.4,5.2c1.4,0.2,2.4,0.3,3.3,0.4L586,96.3c-0.8,0.1-1.9,0.2-3.2,0.5l-0.4,5.3l16.6-0.6
				c7.5-0.3,10.5-2,11.2-8.7l0.1-0.5c0.4-3.9-1-6.1-3.3-6.7c2.5-1.1,3.8-3,4.1-6L611,79.2z M602.8,91.6c-0.3,3-1.2,3.7-4.6,3.9
				l-4.7,0.2l0.7-6.8l4.9-0.2c2.7-0.1,3.9,0.1,3.7,2.3L602.8,91.6z M594.8,83.3l0.7-6.6l5.6-0.2c2.8-0.1,2.9,0.7,2.7,2.9l-0.1,0.6
				c-0.2,2.2-1.6,2.9-4.3,3L594.8,83.3z M625.3,76.6c-7.2,0.3-10.9,3.3-11.7,10.5l-0.3,3.1c-0.8,8.1,1.9,11.4,10,11.1l1.1,0
				c3.4-0.1,7.1-1.1,9.8-3.3l0.4-4.9l-5.6,0.2l-0.4,0.8c-0.7,1.5-2,1.9-3.7,2l-1.7,0.1c-2.2,0.1-3.6-0.7-3.4-3.2l0.1-0.7l15.5-0.5
				l0.6-5.4c0.7-6.7-2.2-9.9-9.2-9.6L625.3,76.6z M629.7,86.9l-9.3,0.3l0.2-1.9c0.2-2.3,2-3.7,4.4-3.8l1.3,0c2.3-0.1,3.9,0.7,3.6,3
				L629.7,86.9z M649.4,94.3c-2.1,0.1-2.2-0.4-1.9-3.6l1-9.2l6.6-0.2l0.5-5.2l-6.6,0.2l0.6-6.6c-2.2,0.2-3.3,0.3-6.2,0.8l-0.6,4.6
				c-0.1,1-0.6,1.4-1.6,1.5l-1.9,0.1l-0.5,5.2l2.8-0.1L640.2,94c-0.5,4.2,1.5,6.5,5.1,6.4l0.5,0c2.7-0.1,6.2-1.1,8.1-2.4l0.2-4
				c-1.5,0.1-2.7,0.1-4.2,0.2L649.4,94.3z M657.6,83.1c-0.3,3.2,1,5.2,6.8,6c5.8,0.9,6.7,1.1,6.6,2.6l-0.1,0.4
				c-0.2,1.7-1.6,2.5-3.7,2.6l-1.3,0c-1.2,0-2.4,0-3.7-0.8l-0.2-2.6l-5.3,0.2l-0.6,5c3.6,2.7,6.9,3.2,9.8,3.1l1.7-0.1
				c6.3-0.2,9.4-2.5,10-7.8l0.1-1.4c0.3-3.2-1.4-5.1-6.7-5.9c-5.9-1-7.2-0.7-7-2.3l0-0.3c0.2-1.4,1.8-2.2,4.4-2.3
				c1.1,0,2.5,0,3.7,0.3l0.1,2.6l5.8-0.2l0.5-6.1c-2.9-1-7.1-1.3-9.9-1.2l-0.8,0c-6.3,0.2-9.5,2.2-10,6.8L657.6,83.1z"/>
		</g>
	</g>
	<g>
		<path class="st1" d="M256.1,147.8l3.6,10.5h-7.2l3.5-10.5H256.1z M258.8,144.7h-8.8v2.6c1.3,0.1,2.1,0.2,2.7,0.2l-6.1,18.1
			c-1,0-2,0.1-3,0.3v2.6h8.9v-2.6c-0.9-0.1-1.3-0.2-2.1-0.2l1.3-4.3h8.8l1.5,4.3c-0.9,0.1-1.6,0.1-2.5,0.2v2.6h9.7v-2.6
			c-1-0.1-2.1-0.2-3.1-0.3L258.8,144.7z"/>
		<path class="st1" d="M277.3,144.7h-5.8v2.5c0.8,0.1,1.5,0.2,2.3,0.2v18.4c-0.7,0-1.5,0.1-2.4,0.2v2.5h8.4V166
			c-0.9-0.1-1.7-0.2-2.4-0.2V144.7z"/>
		<path class="st1" d="M288.1,144.7h-5.8v2.5c0.8,0.1,1.5,0.2,2.3,0.2v18.4c-0.7,0-1.5,0.1-2.4,0.2v2.5h8.4V166
			c-0.9-0.1-1.7-0.2-2.4-0.2V144.7z"/>
		<path class="st1" d="M315.7,162c0,3-1,4.2-3.2,4.2H312c-1.8,0-3,0-4.9-0.3v-11c2.1-1.3,3.3-1.6,5.2-1.6h0.6c2.1,0,2.8,1.4,2.8,4.5
			V162z M307,144.7h-5.8v2.5c0.8,0.1,1.5,0.2,2.3,0.2v20.9c3.9,0.3,6.4,0.4,9.6,0.4h0.5c3.4,0,5.6-1.8,5.6-6.2v-6.5
			c0-3.8-2-5.7-4.9-5.7h-0.6c-2.8,0-4.1,0.6-6.6,2V144.7z"/>
		<path class="st1" d="M335.4,158.8h-9.4v-1.9c0-2.6,1.6-3.9,4.2-3.9h1c2.5,0,4.1,1.2,4.1,3.7V158.8z M330.3,150.4
			c-5,0-7.7,2.4-7.7,7.2v3.7c0,5.2,2.2,7.5,7.7,7.5h1.2c2.6,0,5.1-0.8,6.7-2.6V164h-2.8l-0.1,0.5c-0.6,1.4-2,1.8-3.6,1.8h-1.4
			c-2.5,0-4.1-1.2-4.1-3.8v-1.2h12.5v-4c0-4.6-2.3-6.9-7.2-6.9H330.3z"/>
		<path class="st1" d="M349.2,165.9c-1.8,0-2.2-0.7-2.2-3.4v-9h5.2v-2.7H347v-5.2c-1.1,0-1.8,0.1-3.2,0.3v4.1c0,0.5-0.2,0.7-0.8,0.7
			h-1.8v2.7h2.2v10.7c0,3.3,1.3,4.7,3.9,4.7h0.4c1.7,0,3.5-0.4,5-1.1v-2c-1.2,0.1-2,0.1-3.2,0.1H349.2z"/>
		<path class="st1" d="M355.8,155.8c0,2.6,1.2,3.7,5.9,4.6c4.6,0.9,5.6,1.2,5.6,2.8v0.5c0,2-1.2,2.7-3.5,2.7h-1.1
			c-1,0-3.2-0.2-4-1.4l-0.2-1.9h-2.8v3.9c1.6,1.8,5.2,2,7,2h1.3c4.4,0,6.6-1.6,6.6-5.4v-0.9c0-2.7-1.5-3.7-5.8-4.6
			c-4.8-0.9-5.9-0.9-5.9-2.7v-0.2c0-1.6,1.3-2.2,4-2.2c1.4,0,2.9,0.1,4.1,0.7l0.3,2.3h2.9v-4.1c-2.1-1-5.3-1.3-7.1-1.3h-0.6
			c-4.5,0-6.7,1.5-6.7,4.6V155.8z"/>
		<path class="st1" d="M389,166.2c-2.1,0-2.7-0.6-2.7-2.6V163c0-1.9,0.7-2.5,2.8-2.7c1.6-0.2,4.2-0.5,5.5-0.6v4.1
			c-1.7,1.5-3.2,2.5-5.1,2.5H389z M398.2,156.6c0-3.9-1.7-6.2-5.7-6.2h-1.3c-1.9,0-5.2,0.4-7.4,1v4.4h2.7l0.2-2.1
			c1.3-0.4,3.1-0.6,4.3-0.6c2.6,0,3.7,0.8,3.7,3.8v0.9c-2.5,0.3-4.5,0.4-7,0.7c-2.9,0.4-5,1-5,4.9v0.7c0,4.1,1.5,4.8,4.8,4.8h0.6
			c2.8,0,4.5-1.1,6.6-2.7v2.4h6V166c-1.1-0.1-1.8-0.2-2.4-0.2V156.6z"/>
		<path class="st1" d="M408.8,150.9H403v2.5c0.8,0.1,1.5,0.2,2.3,0.2v12.2c-0.7,0-1.5,0.1-2.4,0.2v2.5h8.6V166
			c-1.1-0.1-1.9-0.2-2.6-0.2v-9.4c1.5-1.8,2.8-2.3,4.6-2.3c0.7-0.1,1.6-0.1,2.6-0.1v-3.3h-1.5c-2.4,0-3.9,1.3-5.7,3.5V150.9z"/>
		<path class="st1" d="M431.2,158.8h-9.4v-1.9c0-2.6,1.6-3.9,4.2-3.9h1c2.5,0,4.1,1.2,4.1,3.7V158.8z M426.1,150.4
			c-5,0-7.7,2.4-7.7,7.2v3.7c0,5.2,2.2,7.5,7.7,7.5h1.2c2.6,0,5.1-0.8,6.7-2.6V164h-2.8l-0.1,0.5c-0.6,1.4-2,1.8-3.6,1.8h-1.4
			c-2.5,0-4.1-1.2-4.1-3.8v-1.2h12.5v-4c0-4.6-2.3-6.9-7.2-6.9H426.1z"/>
		<path class="st1" d="M453.7,166.2c-2.7,0-4.1-1.3-4.1-3.8V157c0-2.6,1.4-3.9,4.1-3.9h1.7c2.7,0,4.1,1.3,4.1,3.9v5.4
			c0,2.5-1.4,3.8-4.1,3.8H453.7z M455.4,168.9c5.2,0,7.5-2.4,7.5-7.5v-3.3c0-5.1-2.3-7.6-7.6-7.6h-1.6c-5.3,0-7.7,2.5-7.7,7.6v3.3
			c0,5.1,2.4,7.5,7.7,7.5H455.4z"/>
		<path class="st1" d="M484.1,165.8v-10.6c0-3.4-1.4-4.7-4.3-4.7h-0.4c-2.8,0-5.2,1.7-7.5,3.4v-3h-5.8v2.5c0.8,0.1,1.5,0.2,2.3,0.2
			v12.2c-0.7,0-1.5,0.1-2.4,0.2v2.5h8.4V166c-0.9-0.1-1.7-0.2-2.4-0.2v-9.9c2-1.4,3.8-2.5,5.8-2.5h0.4c2.1,0,2.5,0.6,2.5,3.6v11.5
			h6.2V166L484.1,165.8z"/>
		<path class="st1" d="M491.5,168.7c1.4,0,2.1-0.6,2.1-2c0-1.4-0.7-2-2.1-2s-2.1,0.6-2.1,2C489.4,168,490.1,168.7,491.5,168.7z
			 M493.5,144.7h-3.9v3.4l1,13.3h2l1-13.3V144.7z"/>
	</g>
</g>
</svg>
