<svg id="Layer_1" data-name="Layer 1" xmlns="http://www.w3.org/2000/svg" viewBox="0 0 622.08 124.76"><defs><style>.cls-1{fill:#fff;}</style></defs><title>standardbank</title><g id="_1FsKyB" data-name="1FsKyB"><path class="cls-1" d="M92.78,27.49c-1.81.89-3.33,1.7-4.91,2.4a34.78,34.78,0,0,1-26.7.78c-2.67-1-5.3-2-7.92-3.09-9.14-3.79-18.11-3.17-27.37,1.27a25.44,25.44,0,0,0-.06-4.47,5.82,5.82,0,0,0-1.53-3.26c-3.17-2.63-6.52-5.05-9.85-7.48a2.31,2.31,0,0,0-1.87-.45,2.23,2.23,0,0,0-.87,1.72c-.07,4.32-.16,8.64,0,13a4.28,4.28,0,0,0,1.86,2.88c2.75,1.72,4.37,4.17,5.8,7Q40,78.21,60.71,118.63c.38.74.73,1.48,1.25,2.53-3.21,1.22-6.31,2.41-9.44,3.55a2.18,2.18,0,0,1-1.3-.15c-16.94-5.85-31.52-15-41.56-30.26A56.66,56.66,0,0,1,0,62.61C0,50.78.81,38.94,1.39,27.11c.26-5.33.82-10.65,1.22-16,.26-3.57,2-5.69,5.53-6.44a209.28,209.28,0,0,1,88.1,0,6.09,6.09,0,0,1,5.25,6.05c.86,11.37,1.74,22.75,2.43,34.13.52,8.55,1,17.14-.4,25.66C100.19,91,88.59,105.76,71.12,116.28a2.49,2.49,0,0,1-.61.1L43,62.13a17.34,17.34,0,0,1,13.11-2.82,28.66,28.66,0,0,1,7.55,2.3c9.15,4.46,17.62,2.68,25.87-2.33,4.89-3,5-2.93,4.73-8.58-.32-7.34-.77-14.67-1.18-22A10.23,10.23,0,0,0,92.78,27.49ZM46.23,112l.41-.54L11,40a3.17,3.17,0,0,0-.63,1.88c-.16,4-.36,8-.45,12-.14,6.77,0,13.52,1.71,20.13C15.44,88.36,24.32,98.9,36.71,106.7,39.77,108.63,43,110.24,46.23,112Zm47.83-46.2-1.92,1.45c-6.88,5.17-14.5,7.63-23.05,5.71-3.81-.85-7.45-2.43-11.17-3.67l-1.22-.41,17.22,33.35C85.41,92.7,92.39,81.05,94.06,65.79ZM24.72,11.85l-.12.61c2.4,1.59,4.76,3.25,7.24,4.71a4.29,4.29,0,0,0,2.8.48c4.08-.85,8.22-1.34,12.26-.29,4.59,1.19,9.09,2.76,13.56,4.37C71,25.52,81.14,24.89,91,19.52c.43-.23,1-.54,1.14-.94a3.87,3.87,0,0,0-2.87-5.08,198.58,198.58,0,0,0-50.19-3.08C34.28,10.77,29.5,11.37,24.72,11.85Z"/><path class="cls-1" d="M457,75.1V19.29a5.22,5.22,0,0,1,.91-.15c7.09,0,14.19-.11,21.27.21a32.37,32.37,0,0,1,9,2,8.58,8.58,0,0,1,5.31,5.81c2.1,6.75,1.18,16.25-8.81,18.52a5.41,5.41,0,0,0-1,.49c1.71.51,3.27.87,4.75,1.43a9.92,9.92,0,0,1,6.47,7c2.67,10.44-1.88,18.6-12.91,19.76C473.75,75.18,465.45,74.88,457,75.1Zm10.18-7.52c2.89,0,5.46,0,8,0a18.52,18.52,0,0,0,3.25-.38c4.29-.87,6.71-4.24,6.58-9.11-.11-4.41-2.56-7.4-6.9-7.88a97.93,97.93,0,0,0-9.82-.33c-.37,0-1.08.59-1.09.92C467.14,56.3,467.16,61.82,467.16,67.59Zm0-24.68c4.44,0,8.57.36,12.52-1.1,3.59-1.32,5-4.22,4.59-9a6.51,6.51,0,0,0-6-6.26c-3.25-.32-6.54-.28-9.82-.28-.43,0-1.23.63-1.23,1C467.12,32.4,467.15,37.53,467.15,42.91Z"/><path class="cls-1" d="M418.73,17.46,428.53,16V74.76h-8.45l-.7-4.43c-.52.41-.82.62-1.09.87-9,8.25-21.05,4.93-24.39-6.84A34.15,34.15,0,0,1,394.41,44c3.71-11.26,15.38-11.78,21.87-6.73.69.54,1.4,1,2.46,1.81Zm0,37h0q0-2.8,0-5.61c0-3.75-.24-4.12-3.72-5.53a12.73,12.73,0,0,0-1.85-.54c-4.35-1-7.64.61-9,4.81a24.13,24.13,0,0,0,.12,15.36,6.28,6.28,0,0,0,8.29,4.28,15.42,15.42,0,0,0,4.83-2.65,4.19,4.19,0,0,0,1.23-2.79C418.88,59.35,418.76,56.89,418.76,54.44Z"/><path class="cls-1" d="M308.94,39.12V17.48L318.71,16V74.79h-8.38l-.76-4.42c-.48.38-.82.61-1.11.89-8.39,7.93-20.39,5.09-24-5.88a33.65,33.65,0,0,1,.14-21.27c3.68-11.4,15.52-11.91,22-6.77C307.21,37.86,307.88,38.33,308.94,39.12Zm0,15.47q0-2.9,0-5.8c0-3.66-.32-4.13-3.73-5.51-5.35-2.17-9.67-.22-11.09,5.26a25,25,0,0,0,.23,13.9c1.36,4.33,4.8,6.1,9.09,4.65a13.78,13.78,0,0,0,4.25-2.55,4,4,0,0,0,1.18-2.61C309.07,59.5,309,57,309,54.59Z"/><path class="cls-1" d="M164.82,21.48l-2.21,6.66c-3.3-.63-6.49-1.33-9.7-1.81a14.63,14.63,0,0,0-8.7,1,6.85,6.85,0,0,0-4.08,6.3,5.76,5.76,0,0,0,3.77,5.77c2.64,1.16,5.4,2.06,8.1,3.1,2.16.83,4.38,1.55,6.45,2.57,6.25,3.08,9,8.59,8,15.45C165,69.11,160,74,151.35,75.23a35.6,35.6,0,0,1-20.21-2.77c-.57-.26-1.11-.6-1.86-1l3.17-6.25c3.77.9,7.27,1.9,10.84,2.53a13,13,0,0,0,9-1.52c5.25-3,5.29-9.73,0-12.57a67.69,67.69,0,0,0-7.69-3.07c-1.38-.53-2.79-1-4.16-1.52-7.78-3.11-10.92-8-10.37-16.14.47-7,4.8-12,12.31-13.77S157.36,18.65,164.82,21.48Z"/><path class="cls-1" d="M596,16V52.26l.42.17c.44-.5.9-1,1.31-1.5,3.84-4.77,7.69-9.52,11.48-14.33a3.36,3.36,0,0,1,3.08-1.47c2.75.11,5.5,0,8.64,0-1.25,1.54-2.27,2.83-3.31,4.09-3.72,4.53-7.42,9.07-11.21,13.55a1.66,1.66,0,0,0,0,2.58c5.16,6.34,10.25,12.74,15.68,19.51-3,0-5.68-.15-8.32,0a5.18,5.18,0,0,1-5.1-2.47c-3.93-5.41-8.12-10.62-12.57-16.4V74.74h-9.92c0-.66-.1-1.28-.1-1.9,0-17.85,0-35.7,0-53.55,0-1.52.44-1.95,1.91-2.08C590.56,17,593.14,16.46,596,16Z"/><path class="cls-1" d="M576.64,74.79h-9.87c0-1,0-1.88,0-2.77,0-7.54,0-15.08,0-22.62,0-6.16-2.86-8.19-8.65-6.23-5.38,1.83-5.78,2.38-5.78,8q0,11.5,0,23a3.6,3.6,0,0,1-.12.56h-9.64V35.31h8.35l.81,4.76c2.53-1.47,4.86-2.91,7.27-4.21a15.21,15.21,0,0,1,9.21-1.42c4.46.53,7.47,3.58,8.12,8.26a46.7,46.7,0,0,1,.42,6.16c0,8.12,0,16.24,0,24.36C576.75,73.72,576.68,74.22,576.64,74.79Z"/><path class="cls-1" d="M240.69,35.17H249l.89,5c2-1.27,3.8-2.49,5.67-3.57a16.16,16.16,0,0,1,12.1-1.87A8.2,8.2,0,0,1,274,41a20.8,20.8,0,0,1,.77,5.14c.07,9.16,0,18.31,0,27.47,0,.32,0,.63-.09,1.12h-9.84c0-.64,0-1.32,0-2,0-7.61,0-15.22,0-22.83a16.5,16.5,0,0,0-.28-3.26c-.68-3.32-2.9-4.93-6.19-4a35.17,35.17,0,0,0-7,3c-.55.29-.87,1.49-.87,2.27-.06,8.06,0,16.12,0,24.18,0,.83,0,1.66,0,2.64h-9.8Z"/><path class="cls-1" d="M533,74.81H525l-.89-4.27-1.61,1.32A15.65,15.65,0,0,1,512,75.69a10.17,10.17,0,0,1-10.3-9.52,29.6,29.6,0,0,1-.05-4.42c.25-4.42,2.58-7.61,6.7-8.74a84.15,84.15,0,0,1,13.1-2.12c1.81-.2,2.56-.69,2.26-2.51-.15-.89-.12-1.8-.26-2.69A4.12,4.12,0,0,0,520,42c-4-.9-7.92.16-11.83.94l-1.5.33c-.51-1.63-1.05-3.18-1.45-4.78a1.35,1.35,0,0,1,.64-1.13c6-2.44,12.19-3.82,18.66-2.76,5.53.91,8.16,3.59,8.35,9.22.34,10.11.23,20.24.29,30.36A2.07,2.07,0,0,1,533,74.81Zm-9.23-14c0-1.35.07-2.7,0-4,0-.4-.61-1.1-.9-1.08-3.26.19-6.59.33-9.41,2.27-3.16,2.18-3.21,7.94-.08,9.84,2.5,1.51,5.05.91,7.53-.27,2.2-1,3.39-2.61,2.91-5.17A9,9,0,0,1,523.74,60.81Z"/><path class="cls-1" d="M357.35,74.9c-2.58,0-4.89.05-7.19,0a1.77,1.77,0,0,1-1.19-1,24.63,24.63,0,0,1-.7-3.31c-.73.61-1.23,1.05-1.75,1.47A15.42,15.42,0,0,1,336,75.68a10,10,0,0,1-9.95-8.56,22.48,22.48,0,0,1-.39-3.64c-.06-5.55,2.44-9.4,7.78-10.83,3.94-1.05,8.11-1.27,12.18-1.84.63-.09,1.28-.08,2.21-.13-.08-1.8,0-3.53-.27-5.22A4,4,0,0,0,344.17,42c-4-.89-7.79.17-11.64.9-.5.09-1,.23-1.64.39l-1.73-5.52a35.63,35.63,0,0,1,12.56-3.35,34.57,34.57,0,0,1,7.87.37c4.32.7,6.77,3.42,7.36,7.78a42.05,42.05,0,0,1,.38,5.38c0,8.25,0,16.5,0,24.75C357.35,73.36,357.35,74,357.35,74.9Zm-9.54-19.75c-3.35.78-6.33,1.26-9.16,2.19-2.19.72-3.25,2.65-3.39,5-.14,2.14.21,4.16,2.13,5.48,2.61,1.8,8.48.51,10.18-2.18a1.44,1.44,0,0,0,.23-.71C347.81,61.86,347.81,58.85,347.81,55.15Z"/><path class="cls-1" d="M222.23,70.54c-1.19.92-2.12,1.69-3.11,2.38a14.49,14.49,0,0,1-9.85,2.73,9.45,9.45,0,0,1-8.51-6,15.88,15.88,0,0,1-.69-9.87A8,8,0,0,1,205,53.67a70.06,70.06,0,0,1,10-2.51,59.66,59.66,0,0,1,6.81-.52c-.21-2.07-.09-4.18-.74-6a5,5,0,0,0-3-2.52c-4-1.14-7.89.07-11.79.86l-1.5.33L203,37.59a63.36,63.36,0,0,1,7.69-2.33,55.32,55.32,0,0,1,9.77-.85c6.69,0,10.4,3.32,10.6,9.93.3,10,.11,20,.12,30,0,.12-.09.23-.24.59-2.32,0-4.75,0-7.17-.05-.35,0-.83-.68-1-1.13A28,28,0,0,1,222.23,70.54Zm-.51-15.43a85.13,85.13,0,0,0-9.41,2.37c-2.79,1-3.37,3.67-3.13,6.44a4.67,4.67,0,0,0,3.23,4.38,9.3,9.3,0,0,0,8.85-2.53,2.1,2.1,0,0,0,.44-1.2C221.73,61.68,221.72,58.8,221.72,55.11Z"/><path class="cls-1" d="M174,41.68h-6.49V36.37L173.93,35c.42-3.19.94-6.3,1.19-9.42a1.81,1.81,0,0,1,1.8-2c2.29-.35,4.56-.75,7-1.16V35h11.92l-1,6.65H184.12c-.05.74-.13,1.3-.13,1.86q0,10,0,19.92c0,3.83,1.36,5.21,5.14,5,2-.11,3.91-.57,6-.89l2,5.45A38.93,38.93,0,0,1,192,74.84a34.51,34.51,0,0,1-6.87.89c-7.7.1-11.08-3.29-11.14-11C174,57.8,174,50.9,174,44,174,43.31,174,42.62,174,41.68Z"/><path class="cls-1" d="M367.45,35.11c2.53,0,4.84,0,7.15,0,1,0,1.31.46,1.39,1.37.13,1.58.36,3.16.61,5.21,4.08-4.28,8.36-7.35,14.35-7.3v8.55c-1.89.35-3.84.66-5.76,1.08a12.64,12.64,0,0,0-2.54.89c-3.6,1.64-6,3.66-5.6,8.43.55,6.4.14,12.88.14,19.32,0,.69,0,1.38,0,2.16h-9.73Z"/></g></svg>